 0
SECTION
 2
HEADER
 9
$ACADVER
 1
AC1009
 0
ENDSEC
 0
SECTION
 2
ENTITIES
 0
POLYLINE
 8
TITLE
 66
1
 70
1
 10
0.0
 20
0.0
 30
0.0
 0
VERTEX
 8
TITLE
 10
 -0.1000
 20
  0.1000
 30
0.0
 0
VERTEX
 8
TITLE
 10
  9.6000
 20
  0.1000
 30
0.0
 0
VERTEX
 8
TITLE
 10
  9.6000
 20
  7.3000
 30
0.0
 0
VERTEX
 8
TITLE
 10
 -0.1000
 20
  7.3000
 30
0.0
 0
SEQEND
 8
TITLE
 0
POLYLINE
 8
TITLE
 66
1
 70
1
 10
0.0
 20
0.0
 30
0.0
 0
VERTEX
 8
TITLE
 10
  0.0000
 20
  0.2000
 30
0.0
 0
VERTEX
 8
TITLE
 10
  9.5000
 20
  0.2000
 30
0.0
 0
VERTEX
 8
TITLE
 10
  9.5000
 20
  7.2000
 30
0.0
 0
VERTEX
 8
TITLE
 10
  0.0000
 20
  7.2000
 30
0.0
 0
SEQEND
 8
TITLE
 0
POLYLINE
 8
TITLE
 66
1
 10
0.0
 20
0.0
 30
0.0
 0
VERTEX
 8
TITLE
 10
  2.0600
 20
  0.2000
 30
0.0
 0
VERTEX
 8
TITLE
 10
  2.0600
 20
  0.1000
 30
0.0
 0
SEQEND
 8
TITLE
 0
POLYLINE
 8
TITLE
 66
1
 10
0.0
 20
0.0
 30
0.0
 0
VERTEX
 8
TITLE
 10
  2.0600
 20
  7.2000
 30
0.0
 0
VERTEX
 8
TITLE
 10
  2.0600
 20
  7.3000
 30
0.0
 0
SEQEND
 8
TITLE
 0
POLYLINE
 8
TITLE
 66
1
 10
0.0
 20
0.0
 30
0.0
 0
VERTEX
 8
TITLE
 10
  3.9200
 20
  0.2000
 30
0.0
 0
VERTEX
 8
TITLE
 10
  3.9200
 20
  0.1000
 30
0.0
 0
SEQEND
 8
TITLE
 0
POLYLINE
 8
TITLE
 66
1
 10
0.0
 20
0.0
 30
0.0
 0
VERTEX
 8
TITLE
 10
  3.9200
 20
  7.2000
 30
0.0
 0
VERTEX
 8
TITLE
 10
  3.9200
 20
  7.3000
 30
0.0
 0
SEQEND
 8
TITLE
 0
POLYLINE
 8
TITLE
 66
1
 10
0.0
 20
0.0
 30
0.0
 0
VERTEX
 8
TITLE
 10
  5.7800
 20
  0.2000
 30
0.0
 0
VERTEX
 8
TITLE
 10
  5.7800
 20
  0.1000
 30
0.0
 0
SEQEND
 8
TITLE
 0
POLYLINE
 8
TITLE
 66
1
 10
0.0
 20
0.0
 30
0.0
 0
VERTEX
 8
TITLE
 10
  5.7800
 20
  7.2000
 30
0.0
 0
VERTEX
 8
TITLE
 10
  5.7800
 20
  7.3000
 30
0.0
 0
SEQEND
 8
TITLE
 0
POLYLINE
 8
TITLE
 66
1
 10
0.0
 20
0.0
 30
0.0
 0
VERTEX
 8
TITLE
 10
  7.6400
 20
  0.2000
 30
0.0
 0
VERTEX
 8
TITLE
 10
  7.6400
 20
  0.1000
 30
0.0
 0
SEQEND
 8
TITLE
 0
POLYLINE
 8
TITLE
 66
1
 10
0.0
 20
0.0
 30
0.0
 0
VERTEX
 8
TITLE
 10
  7.6400
 20
  7.2000
 30
0.0
 0
VERTEX
 8
TITLE
 10
  7.6400
 20
  7.3000
 30
0.0
 0
SEQEND
 8
TITLE
 0
TEXT
 8
TITLE
 10
  1.1300
 20
  0.1200
 30
0.0
 40
  0.0500
 1
5
 0
TEXT
 8
TITLE
 10
  1.1300
 20
  7.2200
 30
0.0
 40
  0.0500
 1
5
 0
TEXT
 8
TITLE
 10
  2.9900
 20
  0.1200
 30
0.0
 40
  0.0500
 1
4
 0
TEXT
 8
TITLE
 10
  2.9900
 20
  7.2200
 30
0.0
 40
  0.0500
 1
4
 0
TEXT
 8
TITLE
 10
  4.8500
 20
  0.1200
 30
0.0
 40
  0.0500
 1
3
 0
TEXT
 8
TITLE
 10
  4.8500
 20
  7.2200
 30
0.0
 40
  0.0500
 1
3
 0
TEXT
 8
TITLE
 10
  6.7100
 20
  0.1200
 30
0.0
 40
  0.0500
 1
2
 0
TEXT
 8
TITLE
 10
  6.7100
 20
  7.2200
 30
0.0
 40
  0.0500
 1
2
 0
TEXT
 8
TITLE
 10
  8.5700
 20
  0.1200
 30
0.0
 40
  0.0500
 1
1
 0
TEXT
 8
TITLE
 10
  8.5700
 20
  7.2200
 30
0.0
 40
  0.0500
 1
1
 0
POLYLINE
 8
TITLE
 66
1
 10
0.0
 20
0.0
 30
0.0
 0
VERTEX
 8
TITLE
 10
 -0.1000
 20
  5.3000
 30
0.0
 0
VERTEX
 8
TITLE
 10
  0.0000
 20
  5.3000
 30
0.0
 0
SEQEND
 8
TITLE
 0
POLYLINE
 8
TITLE
 66
1
 10
0.0
 20
0.0
 30
0.0
 0
VERTEX
 8
TITLE
 10
  9.5000
 20
  5.3000
 30
0.0
 0
VERTEX
 8
TITLE
 10
  9.6000
 20
  5.3000
 30
0.0
 0
SEQEND
 8
TITLE
 0
SOLID
 8
TITLE
 10
  0.0000
 20
  3.6000
 30
0.0
 11
 -0.0500
 21
  3.6200
 31
0.0
 12
 -0.0500
 22
  3.5800
 32
0.0
 13
 -0.0500
 23
  3.6000
 33
0.0
 0
SOLID
 8
TITLE
 10
  9.5000
 20
  3.6000
 30
0.0
 11
  9.5500
 21
  3.6200
 31
0.0
 12
  9.5500
 22
  3.5800
 32
0.0
 13
  9.5500
 23
  3.6000
 33
0.0
 0
POLYLINE
 8
TITLE
 66
1
 10
0.0
 20
0.0
 30
0.0
 0
VERTEX
 8
TITLE
 10
 -0.1000
 20
  3.6000
 30
0.0
 0
VERTEX
 8
TITLE
 10
  0.0000
 20
  3.6000
 30
0.0
 0
SEQEND
 8
TITLE
 0
POLYLINE
 8
TITLE
 66
1
 10
0.0
 20
0.0
 30
0.0
 0
VERTEX
 8
TITLE
 10
  9.5000
 20
  3.6000
 30
0.0
 0
VERTEX
 8
TITLE
 10
  9.6000
 20
  3.6000
 30
0.0
 0
SEQEND
 8
TITLE
 0
SOLID
 8
TITLE
 10
  0.0000
 20
  3.6000
 30
0.0
 11
 -0.0500
 21
  3.6200
 31
0.0
 12
 -0.0500
 22
  3.5800
 32
0.0
 13
 -0.0500
 23
  3.6000
 33
0.0
 0
SOLID
 8
TITLE
 10
  9.5000
 20
  3.6000
 30
0.0
 11
  9.5500
 21
  3.6200
 31
0.0
 12
  9.5500
 22
  3.5800
 32
0.0
 13
  9.5500
 23
  3.6000
 33
0.0
 0
POLYLINE
 8
TITLE
 66
1
 10
0.0
 20
0.0
 30
0.0
 0
VERTEX
 8
TITLE
 10
 -0.1000
 20
  1.9000
 30
0.0
 0
VERTEX
 8
TITLE
 10
  0.0000
 20
  1.9000
 30
0.0
 0
SEQEND
 8
TITLE
 0
POLYLINE
 8
TITLE
 66
1
 10
0.0
 20
0.0
 30
0.0
 0
VERTEX
 8
TITLE
 10
  9.5000
 20
  1.9000
 30
0.0
 0
VERTEX
 8
TITLE
 10
  9.6000
 20
  1.9000
 30
0.0
 0
SEQEND
 8
TITLE
 0
SOLID
 8
TITLE
 10
  0.0000
 20
  3.6000
 30
0.0
 11
 -0.0500
 21
  3.6200
 31
0.0
 12
 -0.0500
 22
  3.5800
 32
0.0
 13
 -0.0500
 23
  3.6000
 33
0.0
 0
SOLID
 8
TITLE
 10
  9.5000
 20
  3.6000
 30
0.0
 11
  9.5500
 21
  3.6200
 31
0.0
 12
  9.5500
 22
  3.5800
 32
0.0
 13
  9.5500
 23
  3.6000
 33
0.0
 0
TEXT
 8
TITLE
 10
 -0.0800
 20
  6.1500
 30
0.0
 40
  0.0500
 1
D
 0
TEXT
 8
TITLE
 10
  9.5200
 20
  6.1500
 30
0.0
 40
  0.0500
 1
D
 0
TEXT
 8
TITLE
 10
 -0.0800
 20
  4.4500
 30
0.0
 40
  0.0500
 1
C
 0
TEXT
 8
TITLE
 10
  9.5200
 20
  4.4500
 30
0.0
 40
  0.0500
 1
C
 0
TEXT
 8
TITLE
 10
 -0.0800
 20
  2.7500
 30
0.0
 40
  0.0500
 1
B
 0
TEXT
 8
TITLE
 10
  9.5200
 20
  2.7500
 30
0.0
 40
  0.0500
 1
B
 0
TEXT
 8
TITLE
 10
 -0.0800
 20
  1.0500
 30
0.0
 40
  0.0500
 1
A
 0
TEXT
 8
TITLE
 10
  9.5200
 20
  1.0500
 30
0.0
 40
  0.0500
 1
A
 0
TEXT
 8
TITLE
 10
  6.3000
 20
  0.4186
 30
0.0
 40
  0.0514
 1
<Doc>
 0
TEXT
 8
TITLE
 10
  9.3000
 20
  0.4186
 30
0.0
 40
  0.0514
 1
<RevCode>
 0
TEXT
 8
TITLE
 10
  6.3000
 20
  0.7186
 30
0.0
 40
  0.0514
 1
<Title>
 0
TEXT
 8
TITLE
 10
  6.0000
 20
  0.4186
 30
0.0
 40
  0.0514
 1
A
 0
TEXT
 8
TITLE
 10
  8.4000
 20
  0.2186
 30
0.0
 40
  0.0514
 1
1
 0
TEXT
 8
TITLE
 10
  9.0000
 20
  0.2186
 30
0.0
 40
  0.0514
 1
1
 0
TEXT
 8
TITLE
 10
  6.4200
 20
  0.2186
 30
0.0
 40
  0.0514
 1
Monday, September 09, 2002
 0
TEXT
 8
PARTTEXT
 10
  5.9000
 20
  0.8186
 30
0.0
 40
  0.0514
 1
Title
 0
TEXT
 8
PARTTEXT
 10
  5.9000
 20
  0.5186
 30
0.0
 40
  0.0514
 1
Size
 0
TEXT
 8
PARTTEXT
 10
  6.3000
 20
  0.5186
 30
0.0
 40
  0.0514
 1
Document Number
 0
TEXT
 8
PARTTEXT
 10
  9.2000
 20
  0.5186
 30
0.0
 40
  0.0514
 1
Rev
 0
TEXT
 8
PARTTEXT
 10
  5.9000
 20
  0.2186
 30
0.0
 40
  0.0514
 1
Date:
 0
TEXT
 8
PARTTEXT
 10
  7.9000
 20
  0.2186
 30
0.0
 40
  0.0514
 1
Sheet
 0
POLYLINE
 8
TITLE
 66
1
 70
1
 10
0.0
 20
0.0
 30
0.0
 0
VERTEX
 8
TITLE
 10
  5.9000
 20
  1.1000
 30
0.0
 0
VERTEX
 8
TITLE
 10
  9.5000
 20
  1.1000
 30
0.0
 0
VERTEX
 8
TITLE
 10
  9.5000
 20
  0.9000
 30
0.0
 0
VERTEX
 8
TITLE
 10
  5.9000
 20
  0.9000
 30
0.0
 0
SEQEND
 8
TITLE
 0
POLYLINE
 8
TITLE
 66
1
 70
1
 10
0.0
 20
0.0
 30
0.0
 0
VERTEX
 8
TITLE
 10
  5.9000
 20
  0.9000
 30
0.0
 0
VERTEX
 8
TITLE
 10
  9.5000
 20
  0.9000
 30
0.0
 0
VERTEX
 8
TITLE
 10
  9.5000
 20
  0.6000
 30
0.0
 0
VERTEX
 8
TITLE
 10
  5.9000
 20
  0.6000
 30
0.0
 0
SEQEND
 8
TITLE
 0
POLYLINE
 8
TITLE
 66
1
 70
1
 10
0.0
 20
0.0
 30
0.0
 0
VERTEX
 8
TITLE
 10
  5.9000
 20
  0.6000
 30
0.0
 0
VERTEX
 8
TITLE
 10
  6.2000
 20
  0.6000
 30
0.0
 0
VERTEX
 8
TITLE
 10
  6.2000
 20
  0.3000
 30
0.0
 0
VERTEX
 8
TITLE
 10
  5.9000
 20
  0.3000
 30
0.0
 0
SEQEND
 8
TITLE
 0
POLYLINE
 8
TITLE
 66
1
 70
1
 10
0.0
 20
0.0
 30
0.0
 0
VERTEX
 8
TITLE
 10
  6.2000
 20
  0.6000
 30
0.0
 0
VERTEX
 8
TITLE
 10
  9.2000
 20
  0.6000
 30
0.0
 0
VERTEX
 8
TITLE
 10
  9.2000
 20
  0.3000
 30
0.0
 0
VERTEX
 8
TITLE
 10
  6.2000
 20
  0.3000
 30
0.0
 0
SEQEND
 8
TITLE
 0
POLYLINE
 8
TITLE
 66
1
 70
1
 10
0.0
 20
0.0
 30
0.0
 0
VERTEX
 8
TITLE
 10
  9.2000
 20
  0.6000
 30
0.0
 0
VERTEX
 8
TITLE
 10
  9.5000
 20
  0.6000
 30
0.0
 0
VERTEX
 8
TITLE
 10
  9.5000
 20
  0.3000
 30
0.0
 0
VERTEX
 8
TITLE
 10
  9.2000
 20
  0.3000
 30
0.0
 0
SEQEND
 8
TITLE
 0
POLYLINE
 8
TITLE
 66
1
 70
1
 10
0.0
 20
0.0
 30
0.0
 0
VERTEX
 8
TITLE
 10
  5.9000
 20
  0.3000
 30
0.0
 0
VERTEX
 8
TITLE
 10
  7.9000
 20
  0.3000
 30
0.0
 0
VERTEX
 8
TITLE
 10
  7.9000
 20
  0.2000
 30
0.0
 0
VERTEX
 8
TITLE
 10
  5.9000
 20
  0.2000
 30
0.0
 0
SEQEND
 8
TITLE
 0
POLYLINE
 8
TITLE
 66
1
 70
1
 10
0.0
 20
0.0
 30
0.0
 0
VERTEX
 8
TITLE
 10
  7.9000
 20
  0.3000
 30
0.0
 0
VERTEX
 8
TITLE
 10
  9.5000
 20
  0.3000
 30
0.0
 0
VERTEX
 8
TITLE
 10
  9.5000
 20
  0.2000
 30
0.0
 0
VERTEX
 8
TITLE
 10
  7.9000
 20
  0.2000
 30
0.0
 0
SEQEND
 8
TITLE
 0
TEXT
 8
PARTTEXT
 10
  8.7000
 20
  0.2186
 30
0.0
 40
  0.0514
 1
of
 0
TEXT
 8
PARTTEXT
 10
  7.7000
 20
  5.2186
 30
0.0
 40
  0.0514
 1
J1
 0
TEXT
 8
PARTTEXT
 10
  7.7000
 20
  3.6186
 30
0.0
 40
  0.0514
 1
HEADER 10X2
 0
LINE
 8
PARTS
 10
  8.4000
 20
  4.9000
 30
0.0
 11
  8.1000
 21
  4.9000
 31
0.0
 0
TEXT
 8
PARTS
 10
  8.1600
 20
  4.9300
 30
0.0
 40
  0.0500
 1
1
 0
LINE
 8
PARTS
 10
  8.4000
 20
  4.8000
 30
0.0
 11
  8.1000
 21
  4.8000
 31
0.0
 0
TEXT
 8
PARTS
 10
  8.1600
 20
  4.8300
 30
0.0
 40
  0.0500
 1
3
 0
LINE
 8
PARTS
 10
  8.4000
 20
  4.7000
 30
0.0
 11
  8.1000
 21
  4.7000
 31
0.0
 0
TEXT
 8
PARTS
 10
  8.1600
 20
  4.7300
 30
0.0
 40
  0.0500
 1
5
 0
LINE
 8
PARTS
 10
  8.4000
 20
  4.6000
 30
0.0
 11
  8.1000
 21
  4.6000
 31
0.0
 0
TEXT
 8
PARTS
 10
  8.1600
 20
  4.6300
 30
0.0
 40
  0.0500
 1
7
 0
LINE
 8
PARTS
 10
  8.4000
 20
  4.5000
 30
0.0
 11
  8.1000
 21
  4.5000
 31
0.0
 0
TEXT
 8
PARTS
 10
  8.1600
 20
  4.5300
 30
0.0
 40
  0.0500
 1
9
 0
LINE
 8
PARTS
 10
  8.4000
 20
  4.4000
 30
0.0
 11
  8.1000
 21
  4.4000
 31
0.0
 0
TEXT
 8
PARTS
 10
  8.1600
 20
  4.4300
 30
0.0
 40
  0.0500
 1
11
 0
LINE
 8
PARTS
 10
  8.4000
 20
  4.3000
 30
0.0
 11
  8.1000
 21
  4.3000
 31
0.0
 0
TEXT
 8
PARTS
 10
  8.1600
 20
  4.3300
 30
0.0
 40
  0.0500
 1
13
 0
LINE
 8
PARTS
 10
  8.4000
 20
  4.2000
 30
0.0
 11
  8.1000
 21
  4.2000
 31
0.0
 0
TEXT
 8
PARTS
 10
  8.1600
 20
  4.2300
 30
0.0
 40
  0.0500
 1
15
 0
LINE
 8
PARTS
 10
  8.4000
 20
  4.1000
 30
0.0
 11
  8.1000
 21
  4.1000
 31
0.0
 0
TEXT
 8
PARTS
 10
  8.1600
 20
  4.1300
 30
0.0
 40
  0.0500
 1
17
 0
LINE
 8
PARTS
 10
  8.4000
 20
  4.0000
 30
0.0
 11
  8.1000
 21
  4.0000
 31
0.0
 0
TEXT
 8
PARTS
 10
  8.1600
 20
  4.0300
 30
0.0
 40
  0.0500
 1
19
 0
LINE
 8
PARTS
 10
  7.4000
 20
  4.9000
 30
0.0
 11
  7.7000
 21
  4.9000
 31
0.0
 0
TEXT
 8
PARTS
 10
  7.6000
 20
  4.9300
 30
0.0
 40
  0.0500
 1
2
 0
LINE
 8
PARTS
 10
  7.4000
 20
  4.8000
 30
0.0
 11
  7.7000
 21
  4.8000
 31
0.0
 0
TEXT
 8
PARTS
 10
  7.6000
 20
  4.8300
 30
0.0
 40
  0.0500
 1
4
 0
LINE
 8
PARTS
 10
  7.4000
 20
  4.7000
 30
0.0
 11
  7.7000
 21
  4.7000
 31
0.0
 0
TEXT
 8
PARTS
 10
  7.6000
 20
  4.7300
 30
0.0
 40
  0.0500
 1
6
 0
LINE
 8
PARTS
 10
  7.4000
 20
  4.6000
 30
0.0
 11
  7.7000
 21
  4.6000
 31
0.0
 0
TEXT
 8
PARTS
 10
  7.6000
 20
  4.6300
 30
0.0
 40
  0.0500
 1
8
 0
LINE
 8
PARTS
 10
  7.4000
 20
  4.5000
 30
0.0
 11
  7.7000
 21
  4.5000
 31
0.0
 0
TEXT
 8
PARTS
 10
  7.5600
 20
  4.5300
 30
0.0
 40
  0.0500
 1
10
 0
LINE
 8
PARTS
 10
  7.4000
 20
  4.4000
 30
0.0
 11
  7.7000
 21
  4.4000
 31
0.0
 0
TEXT
 8
PARTS
 10
  7.5600
 20
  4.4300
 30
0.0
 40
  0.0500
 1
12
 0
LINE
 8
PARTS
 10
  7.4000
 20
  4.3000
 30
0.0
 11
  7.7000
 21
  4.3000
 31
0.0
 0
TEXT
 8
PARTS
 10
  7.5600
 20
  4.3300
 30
0.0
 40
  0.0500
 1
14
 0
LINE
 8
PARTS
 10
  7.4000
 20
  4.2000
 30
0.0
 11
  7.7000
 21
  4.2000
 31
0.0
 0
TEXT
 8
PARTS
 10
  7.5600
 20
  4.2300
 30
0.0
 40
  0.0500
 1
16
 0
LINE
 8
PARTS
 10
  7.4000
 20
  4.1000
 30
0.0
 11
  7.7000
 21
  4.1000
 31
0.0
 0
TEXT
 8
PARTS
 10
  7.5600
 20
  4.1300
 30
0.0
 40
  0.0500
 1
18
 0
LINE
 8
PARTS
 10
  7.4000
 20
  4.0000
 30
0.0
 11
  7.7000
 21
  4.0000
 31
0.0
 0
TEXT
 8
PARTS
 10
  7.5600
 20
  4.0300
 30
0.0
 40
  0.0500
 1
20
 0
POLYLINE
 8
PARTS
 66
1
 70
1
 10
0.0
 20
0.0
 30
0.0
 0
VERTEX
 8
PARTS
 10
  7.7000
 20
  5.0000
 30
0.0
 0
VERTEX
 8
PARTS
 10
  8.1000
 20
  5.0000
 30
0.0
 0
VERTEX
 8
PARTS
 10
  8.1000
 20
  3.9000
 30
0.0
 0
VERTEX
 8
PARTS
 10
  7.7000
 20
  3.9000
 30
0.0
 0
SEQEND
 8
PARTS
 0
POLYLINE
 8
PARTS
 66
1
 10
0.0
 20
0.0
 30
0.0
 0
VERTEX
 8
PARTS
 10
  7.9700
 20
  5.0000
 30
0.0
 0
VERTEX
 8
PARTS
 10
  7.9700
 20
  5.0000
 30
0.0
 0
VERTEX
 8
PARTS
 10
  7.9700
 20
  5.0400
 30
0.0
 0
VERTEX
 8
PARTS
 10
  7.8300
 20
  5.0400
 30
0.0
 0
VERTEX
 8
PARTS
 10
  7.8300
 20
  5.0000
 30
0.0
 0
SEQEND
 8
PARTS
 0
POLYLINE
 8
PARTS
 66
1
 10
0.0
 20
0.0
 30
0.0
 0
VERTEX
 8
PARTS
 10
  7.8400
 20
  3.9000
 30
0.0
 0
VERTEX
 8
PARTS
 10
  7.8400
 20
  3.9000
 30
0.0
 0
VERTEX
 8
PARTS
 10
  7.8400
 20
  3.8600
 30
0.0
 0
VERTEX
 8
PARTS
 10
  7.9800
 20
  3.8600
 30
0.0
 0
VERTEX
 8
PARTS
 10
  7.9800
 20
  3.9000
 30
0.0
 0
SEQEND
 8
PARTS
 0
TEXT
 8
PARTTEXT
 10
  4.7000
 20
  5.1186
 30
0.0
 40
  0.0514
 1
U1
 0
TEXT
 8
PARTTEXT
 10
  4.7000
 20
  2.8786
 30
0.0
 40
  0.0514
 1
AT90S8535DIL
 0
LINE
 8
PARTS
 10
  4.3000
 20
  4.8000
 30
0.0
 11
  4.6000
 21
  4.8000
 31
0.0
 0
TEXT
 8
PARTS
 10
  4.6900
 20
  4.7750
 30
0.0
 40
  0.0500
 1
PB2(AIN0)
 0
TEXT
 8
PARTS
 10
  4.5000
 20
  4.8300
 30
0.0
 40
  0.0500
 1
3
 0
LINE
 8
PARTS
 10
  4.3000
 20
  3.9000
 30
0.0
 11
  4.6000
 21
  3.9000
 31
0.0
 0
TEXT
 8
PARTS
 10
  4.6900
 20
  3.8750
 30
0.0
 40
  0.0500
 1
XTAL2
 0
TEXT
 8
PARTS
 10
  4.4600
 20
  3.9300
 30
0.0
 40
  0.0500
 1
12
 0
LINE
 8
PARTS
 10
  4.3000
 20
  3.8000
 30
0.0
 11
  4.6000
 21
  3.8000
 31
0.0
 0
TEXT
 8
PARTS
 10
  4.6900
 20
  3.7750
 30
0.0
 40
  0.0500
 1
XTAL1
 0
TEXT
 8
PARTS
 10
  4.4600
 20
  3.8300
 30
0.0
 40
  0.0500
 1
13
 0
LINE
 8
PARTS
 10
  4.3000
 20
  4.9000
 30
0.0
 11
  4.6000
 21
  4.9000
 31
0.0
 0
TEXT
 8
PARTS
 10
  4.6900
 20
  4.8750
 30
0.0
 40
  0.0500
 1
PB1(T1)
 0
TEXT
 8
PARTS
 10
  4.5000
 20
  4.9300
 30
0.0
 40
  0.0500
 1
2
 0
LINE
 8
PARTS
 10
  4.3000
 20
  3.5000
 30
0.0
 11
  4.6000
 21
  3.5000
 31
0.0
 0
TEXT
 8
PARTS
 10
  4.6900
 20
  3.4750
 30
0.0
 40
  0.0500
 1
PD2(INT0)
 0
TEXT
 8
PARTS
 10
  4.4600
 20
  3.5300
 30
0.0
 40
  0.0500
 1
16
 0
LINE
 8
PARTS
 10
  4.3000
 20
  3.4000
 30
0.0
 11
  4.6000
 21
  3.4000
 31
0.0
 0
TEXT
 8
PARTS
 10
  4.6900
 20
  3.3750
 30
0.0
 40
  0.0500
 1
PD3(INT1)
 0
TEXT
 8
PARTS
 10
  4.4600
 20
  3.4300
 30
0.0
 40
  0.0500
 1
17
 0
LINE
 8
PARTS
 10
  4.3000
 20
  3.3000
 30
0.0
 11
  4.6000
 21
  3.3000
 31
0.0
 0
TEXT
 8
PARTS
 10
  4.6900
 20
  3.2750
 30
0.0
 40
  0.0500
 1
PD4(OC1B)
 0
TEXT
 8
PARTS
 10
  4.4600
 20
  3.3300
 30
0.0
 40
  0.0500
 1
18
 0
LINE
 8
PARTS
 10
  4.3000
 20
  3.2000
 30
0.0
 11
  4.6000
 21
  3.2000
 31
0.0
 0
TEXT
 8
PARTS
 10
  4.6900
 20
  3.1750
 30
0.0
 40
  0.0500
 1
PD5(OC1A)
 0
TEXT
 8
PARTS
 10
  4.4600
 20
  3.2300
 30
0.0
 40
  0.0500
 1
19
 0
LINE
 8
PARTS
 10
  4.5000
 20
  4.0000
 30
0.0
 11
  4.6000
 21
  4.0000
 31
0.0
 0
TEXT
 8
PARTS
 10
  4.6900
 20
  3.9750
 30
0.0
 40
  0.0500
 1
GND
 0
TEXT
 8
PARTS
 10
  4.4600
 20
  4.0300
 30
0.0
 40
  0.0500
 1
11
 0
LINE
 8
PARTS
 10
  4.5000
 20
  4.1000
 30
0.0
 11
  4.6000
 21
  4.1000
 31
0.0
 0
TEXT
 8
PARTS
 10
  4.6900
 20
  4.0750
 30
0.0
 40
  0.0500
 1
Vcc
 0
TEXT
 8
PARTS
 10
  4.4600
 20
  4.1300
 30
0.0
 40
  0.0500
 1
10
 0
LINE
 8
PARTS
 10
  4.3000
 20
  4.3000
 30
0.0
 11
  4.6000
 21
  4.3000
 31
0.0
 0
TEXT
 8
PARTS
 10
  4.6900
 20
  4.2750
 30
0.0
 40
  0.0500
 1
PB7[SCK)
 0
TEXT
 8
PARTS
 10
  4.5000
 20
  4.3300
 30
0.0
 40
  0.0500
 1
8
 0
LINE
 8
PARTS
 10
  4.3000
 20
  4.4000
 30
0.0
 11
  4.6000
 21
  4.4000
 31
0.0
 0
TEXT
 8
PARTS
 10
  4.6900
 20
  4.3750
 30
0.0
 40
  0.0500
 1
PB6[MISO)
 0
TEXT
 8
PARTS
 10
  4.5000
 20
  4.4300
 30
0.0
 40
  0.0500
 1
7
 0
LINE
 8
PARTS
 10
  4.3000
 20
  4.5000
 30
0.0
 11
  4.6000
 21
  4.5000
 31
0.0
 0
TEXT
 8
PARTS
 10
  4.6900
 20
  4.4750
 30
0.0
 40
  0.0500
 1
PB5(MOSI)
 0
TEXT
 8
PARTS
 10
  4.5000
 20
  4.5300
 30
0.0
 40
  0.0500
 1
6
 0
LINE
 8
PARTS
 10
  6.0000
 20
  4.6000
 30
0.0
 11
  5.7000
 21
  4.6000
 31
0.0
 0
TEXT
 8
PARTS
 10
  5.2500
 20
  4.5750
 30
0.0
 40
  0.0500
 1
PA4(ADC4)
 0
TEXT
 8
PARTS
 10
  5.7600
 20
  4.6300
 30
0.0
 40
  0.0500
 1
36
 0
LINE
 8
PARTS
 10
  6.0000
 20
  4.5000
 30
0.0
 11
  5.7000
 21
  4.5000
 31
0.0
 0
TEXT
 8
PARTS
 10
  5.2500
 20
  4.4750
 30
0.0
 40
  0.0500
 1
PA5(ADC5)
 0
TEXT
 8
PARTS
 10
  5.7600
 20
  4.5300
 30
0.0
 40
  0.0500
 1
35
 0
LINE
 8
PARTS
 10
  6.0000
 20
  4.4000
 30
0.0
 11
  5.7000
 21
  4.4000
 31
0.0
 0
TEXT
 8
PARTS
 10
  5.2500
 20
  4.3750
 30
0.0
 40
  0.0500
 1
PA6(ADC6)
 0
TEXT
 8
PARTS
 10
  5.7600
 20
  4.4300
 30
0.0
 40
  0.0500
 1
34
 0
LINE
 8
PARTS
 10
  6.0000
 20
  4.3000
 30
0.0
 11
  5.7000
 21
  4.3000
 31
0.0
 0
TEXT
 8
PARTS
 10
  5.2500
 20
  4.2750
 30
0.0
 40
  0.0500
 1
PA7(ADC7)
 0
TEXT
 8
PARTS
 10
  5.7600
 20
  4.3300
 30
0.0
 40
  0.0500
 1
33
 0
LINE
 8
PARTS
 10
  5.8000
 20
  4.2000
 30
0.0
 11
  5.7000
 21
  4.2000
 31
0.0
 0
TEXT
 8
PARTS
 10
  5.4500
 20
  4.1750
 30
0.0
 40
  0.0500
 1
ARef
 0
TEXT
 8
PARTS
 10
  5.7600
 20
  4.2300
 30
0.0
 40
  0.0500
 1
32
 0
LINE
 8
PARTS
 10
  6.0000
 20
  4.7000
 30
0.0
 11
  5.7000
 21
  4.7000
 31
0.0
 0
TEXT
 8
PARTS
 10
  5.2500
 20
  4.6750
 30
0.0
 40
  0.0500
 1
PA3(ADC3)
 0
TEXT
 8
PARTS
 10
  5.7600
 20
  4.7300
 30
0.0
 40
  0.0500
 1
37
 0
LINE
 8
PARTS
 10
  4.3000
 20
  5.0000
 30
0.0
 11
  4.6000
 21
  5.0000
 31
0.0
 0
TEXT
 8
PARTS
 10
  4.6900
 20
  4.9750
 30
0.0
 40
  0.0500
 1
PB0(T0)
 0
TEXT
 8
PARTS
 10
  4.5000
 20
  5.0300
 30
0.0
 40
  0.0500
 1
1
 0
LINE
 8
PARTS
 10
  4.3000
 20
  4.7000
 30
0.0
 11
  4.6000
 21
  4.7000
 31
0.0
 0
TEXT
 8
PARTS
 10
  4.6900
 20
  4.6750
 30
0.0
 40
  0.0500
 1
PB3(AIN1)
 0
TEXT
 8
PARTS
 10
  4.5000
 20
  4.7300
 30
0.0
 40
  0.0500
 1
4
 0
LINE
 8
PARTS
 10
  4.3000
 20
  4.6000
 30
0.0
 11
  4.6000
 21
  4.6000
 31
0.0
 0
TEXT
 8
PARTS
 10
  4.6900
 20
  4.5750
 30
0.0
 40
  0.0500
 1
PB4(%%oSS%%o)
 0
TEXT
 8
PARTS
 10
  4.5000
 20
  4.6300
 30
0.0
 40
  0.0500
 1
5
 0
LINE
 8
PARTS
 10
  4.3000
 20
  4.2000
 30
0.0
 11
  4.6000
 21
  4.2000
 31
0.0
 0
TEXT
 8
PARTS
 10
  4.6900
 20
  4.1750
 30
0.0
 40
  0.0500
 1
%%oRESET%%o
 0
TEXT
 8
PARTS
 10
  4.5000
 20
  4.2300
 30
0.0
 40
  0.0500
 1
9
 0
LINE
 8
PARTS
 10
  4.3000
 20
  3.7000
 30
0.0
 11
  4.6000
 21
  3.7000
 31
0.0
 0
TEXT
 8
PARTS
 10
  4.6900
 20
  3.6750
 30
0.0
 40
  0.0500
 1
PD0(RxD)
 0
TEXT
 8
PARTS
 10
  4.4600
 20
  3.7300
 30
0.0
 40
  0.0500
 1
14
 0
LINE
 8
PARTS
 10
  4.3000
 20
  3.6000
 30
0.0
 11
  4.6000
 21
  3.6000
 31
0.0
 0
TEXT
 8
PARTS
 10
  4.6900
 20
  3.5750
 30
0.0
 40
  0.0500
 1
PD1(TxD)
 0
TEXT
 8
PARTS
 10
  4.4600
 20
  3.6300
 30
0.0
 40
  0.0500
 1
15
 0
LINE
 8
PARTS
 10
  4.3000
 20
  3.1000
 30
0.0
 11
  4.6000
 21
  3.1000
 31
0.0
 0
TEXT
 8
PARTS
 10
  4.6900
 20
  3.0750
 30
0.0
 40
  0.0500
 1
PD6(ICP)
 0
TEXT
 8
PARTS
 10
  4.4600
 20
  3.1300
 30
0.0
 40
  0.0500
 1
20
 0
LINE
 8
PARTS
 10
  6.0000
 20
  3.1000
 30
0.0
 11
  5.7000
 21
  3.1000
 31
0.0
 0
TEXT
 8
PARTS
 10
  5.2900
 20
  3.0750
 30
0.0
 40
  0.0500
 1
PD7(OC2)
 0
TEXT
 8
PARTS
 10
  5.7600
 20
  3.1300
 30
0.0
 40
  0.0500
 1
21
 0
LINE
 8
PARTS
 10
  6.0000
 20
  5.0000
 30
0.0
 11
  5.7000
 21
  5.0000
 31
0.0
 0
TEXT
 8
PARTS
 10
  5.2500
 20
  4.9750
 30
0.0
 40
  0.0500
 1
PA0(ADC0)
 0
TEXT
 8
PARTS
 10
  5.7600
 20
  5.0300
 30
0.0
 40
  0.0500
 1
40
 0
LINE
 8
PARTS
 10
  6.0000
 20
  4.9000
 30
0.0
 11
  5.7000
 21
  4.9000
 31
0.0
 0
TEXT
 8
PARTS
 10
  5.2500
 20
  4.8750
 30
0.0
 40
  0.0500
 1
PA1(ADC1)
 0
TEXT
 8
PARTS
 10
  5.7600
 20
  4.9300
 30
0.0
 40
  0.0500
 1
39
 0
LINE
 8
PARTS
 10
  6.0000
 20
  4.8000
 30
0.0
 11
  5.7000
 21
  4.8000
 31
0.0
 0
TEXT
 8
PARTS
 10
  5.2500
 20
  4.7750
 30
0.0
 40
  0.0500
 1
PA2(ADC2)
 0
TEXT
 8
PARTS
 10
  5.7600
 20
  4.8300
 30
0.0
 40
  0.0500
 1
38
 0
LINE
 8
PARTS
 10
  5.8000
 20
  4.1000
 30
0.0
 11
  5.7000
 21
  4.1000
 31
0.0
 0
TEXT
 8
PARTS
 10
  5.4500
 20
  4.0750
 30
0.0
 40
  0.0500
 1
AGnd
 0
TEXT
 8
PARTS
 10
  5.7600
 20
  4.1300
 30
0.0
 40
  0.0500
 1
31
 0
LINE
 8
PARTS
 10
  5.8000
 20
  4.0000
 30
0.0
 11
  5.7000
 21
  4.0000
 31
0.0
 0
TEXT
 8
PARTS
 10
  5.4500
 20
  3.9750
 30
0.0
 40
  0.0500
 1
AVcc
 0
TEXT
 8
PARTS
 10
  5.7600
 20
  4.0300
 30
0.0
 40
  0.0500
 1
30
 0
LINE
 8
PARTS
 10
  6.0000
 20
  3.9000
 30
0.0
 11
  5.7000
 21
  3.9000
 31
0.0
 0
TEXT
 8
PARTS
 10
  5.2100
 20
  3.8750
 30
0.0
 40
  0.0500
 1
PC7(TOSC2)
 0
TEXT
 8
PARTS
 10
  5.7600
 20
  3.9300
 30
0.0
 40
  0.0500
 1
29
 0
LINE
 8
PARTS
 10
  6.0000
 20
  3.8000
 30
0.0
 11
  5.7000
 21
  3.8000
 31
0.0
 0
TEXT
 8
PARTS
 10
  5.2100
 20
  3.7750
 30
0.0
 40
  0.0500
 1
PC6(TOSC1)
 0
TEXT
 8
PARTS
 10
  5.7600
 20
  3.8300
 30
0.0
 40
  0.0500
 1
28
 0
LINE
 8
PARTS
 10
  6.0000
 20
  3.7000
 30
0.0
 11
  5.7000
 21
  3.7000
 31
0.0
 0
TEXT
 8
PARTS
 10
  5.4900
 20
  3.6750
 30
0.0
 40
  0.0500
 1
PC5
 0
TEXT
 8
PARTS
 10
  5.7600
 20
  3.7300
 30
0.0
 40
  0.0500
 1
27
 0
LINE
 8
PARTS
 10
  6.0000
 20
  3.6000
 30
0.0
 11
  5.7000
 21
  3.6000
 31
0.0
 0
TEXT
 8
PARTS
 10
  5.4900
 20
  3.5750
 30
0.0
 40
  0.0500
 1
PC4
 0
TEXT
 8
PARTS
 10
  5.7600
 20
  3.6300
 30
0.0
 40
  0.0500
 1
26
 0
LINE
 8
PARTS
 10
  6.0000
 20
  3.5000
 30
0.0
 11
  5.7000
 21
  3.5000
 31
0.0
 0
TEXT
 8
PARTS
 10
  5.4900
 20
  3.4750
 30
0.0
 40
  0.0500
 1
PC3
 0
TEXT
 8
PARTS
 10
  5.7600
 20
  3.5300
 30
0.0
 40
  0.0500
 1
25
 0
LINE
 8
PARTS
 10
  6.0000
 20
  3.4000
 30
0.0
 11
  5.7000
 21
  3.4000
 31
0.0
 0
TEXT
 8
PARTS
 10
  5.4900
 20
  3.3750
 30
0.0
 40
  0.0500
 1
PC2
 0
TEXT
 8
PARTS
 10
  5.7600
 20
  3.4300
 30
0.0
 40
  0.0500
 1
24
 0
LINE
 8
PARTS
 10
  6.0000
 20
  3.3000
 30
0.0
 11
  5.7000
 21
  3.3000
 31
0.0
 0
TEXT
 8
PARTS
 10
  5.4900
 20
  3.2750
 30
0.0
 40
  0.0500
 1
PC1
 0
TEXT
 8
PARTS
 10
  5.7600
 20
  3.3300
 30
0.0
 40
  0.0500
 1
23
 0
LINE
 8
PARTS
 10
  6.0000
 20
  3.2000
 30
0.0
 11
  5.7000
 21
  3.2000
 31
0.0
 0
TEXT
 8
PARTS
 10
  5.4900
 20
  3.1750
 30
0.0
 40
  0.0500
 1
PC0
 0
TEXT
 8
PARTS
 10
  5.7600
 20
  3.2300
 30
0.0
 40
  0.0500
 1
22
 0
POLYLINE
 8
PARTS
 66
1
 70
1
 10
0.0
 20
0.0
 30
0.0
 0
VERTEX
 8
PARTS
 10
  4.6000
 20
  5.1000
 30
0.0
 0
VERTEX
 8
PARTS
 10
  5.7000
 20
  5.1000
 30
0.0
 0
VERTEX
 8
PARTS
 10
  5.7000
 20
  3.0000
 30
0.0
 0
VERTEX
 8
PARTS
 10
  4.6000
 20
  3.0000
 30
0.0
 0
SEQEND
 8
PARTS
 0
POLYLINE
 8
PARTS
 66
1
 10
0.0
 20
0.0
 30
0.0
 0
VERTEX
 8
PARTS
 10
  5.0000
 20
  5.1000
 30
0.0
 0
VERTEX
 8
PARTS
 10
  5.1000
 20
  5.0000
 30
0.0
 0
SEQEND
 8
PARTS
 0
POLYLINE
 8
PARTS
 66
1
 10
0.0
 20
0.0
 30
0.0
 0
VERTEX
 8
PARTS
 10
  5.1000
 20
  5.0000
 30
0.0
 0
VERTEX
 8
PARTS
 10
  5.2000
 20
  5.1000
 30
0.0
 0
SEQEND
 8
PARTS
 0
POLYLINE
 8
WIRE
 66
1
 10
0.0
 20
0.0
 30
0.0
 0
VERTEX
 8
WIRE
 10
  7.4000
 20
  4.9000
 30
0.0
 0
VERTEX
 8
WIRE
 10
  7.0000
 20
  4.9000
 30
0.0
 0
SEQEND
 8
WIRE
 0
POLYLINE
 8
WIRE
 66
1
 10
0.0
 20
0.0
 30
0.0
 0
VERTEX
 8
WIRE
 10
  7.0000
 20
  4.9000
 30
0.0
 0
VERTEX
 8
WIRE
 10
  7.0000
 20
  5.0000
 30
0.0
 0
SEQEND
 8
WIRE
 0
POLYLINE
 8
WIRE
 66
1
 10
0.0
 20
0.0
 30
0.0
 0
VERTEX
 8
WIRE
 10
  7.0000
 20
  5.0000
 30
0.0
 0
VERTEX
 8
WIRE
 10
  6.0000
 20
  5.0000
 30
0.0
 0
SEQEND
 8
WIRE
 0
POLYLINE
 8
WIRE
 66
1
 10
0.0
 20
0.0
 30
0.0
 0
VERTEX
 8
WIRE
 10
  7.4000
 20
  4.8000
 30
0.0
 0
VERTEX
 8
WIRE
 10
  6.9000
 20
  4.8000
 30
0.0
 0
SEQEND
 8
WIRE
 0
POLYLINE
 8
WIRE
 66
1
 10
0.0
 20
0.0
 30
0.0
 0
VERTEX
 8
WIRE
 10
  6.9000
 20
  4.8000
 30
0.0
 0
VERTEX
 8
WIRE
 10
  6.9000
 20
  4.9000
 30
0.0
 0
SEQEND
 8
WIRE
 0
POLYLINE
 8
WIRE
 66
1
 10
0.0
 20
0.0
 30
0.0
 0
VERTEX
 8
WIRE
 10
  6.9000
 20
  4.9000
 30
0.0
 0
VERTEX
 8
WIRE
 10
  6.0000
 20
  4.9000
 30
0.0
 0
SEQEND
 8
WIRE
 0
POLYLINE
 8
WIRE
 66
1
 10
0.0
 20
0.0
 30
0.0
 0
VERTEX
 8
WIRE
 10
  7.4000
 20
  4.7000
 30
0.0
 0
VERTEX
 8
WIRE
 10
  6.8000
 20
  4.7000
 30
0.0
 0
SEQEND
 8
WIRE
 0
POLYLINE
 8
WIRE
 66
1
 10
0.0
 20
0.0
 30
0.0
 0
VERTEX
 8
WIRE
 10
  6.8000
 20
  4.7000
 30
0.0
 0
VERTEX
 8
WIRE
 10
  6.8000
 20
  4.8000
 30
0.0
 0
SEQEND
 8
WIRE
 0
POLYLINE
 8
WIRE
 66
1
 10
0.0
 20
0.0
 30
0.0
 0
VERTEX
 8
WIRE
 10
  6.8000
 20
  4.8000
 30
0.0
 0
VERTEX
 8
WIRE
 10
  6.0000
 20
  4.8000
 30
0.0
 0
SEQEND
 8
WIRE
 0
POLYLINE
 8
WIRE
 66
1
 10
0.0
 20
0.0
 30
0.0
 0
VERTEX
 8
WIRE
 10
  7.4000
 20
  4.6000
 30
0.0
 0
VERTEX
 8
WIRE
 10
  6.7000
 20
  4.6000
 30
0.0
 0
SEQEND
 8
WIRE
 0
POLYLINE
 8
WIRE
 66
1
 10
0.0
 20
0.0
 30
0.0
 0
VERTEX
 8
WIRE
 10
  6.7000
 20
  4.6000
 30
0.0
 0
VERTEX
 8
WIRE
 10
  6.7000
 20
  4.7000
 30
0.0
 0
SEQEND
 8
WIRE
 0
POLYLINE
 8
WIRE
 66
1
 10
0.0
 20
0.0
 30
0.0
 0
VERTEX
 8
WIRE
 10
  6.7000
 20
  4.7000
 30
0.0
 0
VERTEX
 8
WIRE
 10
  6.0000
 20
  4.7000
 30
0.0
 0
SEQEND
 8
WIRE
 0
POLYLINE
 8
WIRE
 66
1
 10
0.0
 20
0.0
 30
0.0
 0
VERTEX
 8
WIRE
 10
  6.0000
 20
  4.6000
 30
0.0
 0
VERTEX
 8
WIRE
 10
  6.6000
 20
  4.6000
 30
0.0
 0
SEQEND
 8
WIRE
 0
POLYLINE
 8
WIRE
 66
1
 10
0.0
 20
0.0
 30
0.0
 0
VERTEX
 8
WIRE
 10
  6.6000
 20
  4.6000
 30
0.0
 0
VERTEX
 8
WIRE
 10
  6.6000
 20
  4.5000
 30
0.0
 0
SEQEND
 8
WIRE
 0
POLYLINE
 8
WIRE
 66
1
 10
0.0
 20
0.0
 30
0.0
 0
VERTEX
 8
WIRE
 10
  6.6000
 20
  4.5000
 30
0.0
 0
VERTEX
 8
WIRE
 10
  7.4000
 20
  4.5000
 30
0.0
 0
SEQEND
 8
WIRE
 0
POLYLINE
 8
WIRE
 66
1
 10
0.0
 20
0.0
 30
0.0
 0
VERTEX
 8
WIRE
 10
  7.4000
 20
  4.4000
 30
0.0
 0
VERTEX
 8
WIRE
 10
  6.5000
 20
  4.4000
 30
0.0
 0
SEQEND
 8
WIRE
 0
POLYLINE
 8
WIRE
 66
1
 10
0.0
 20
0.0
 30
0.0
 0
VERTEX
 8
WIRE
 10
  6.5000
 20
  4.4000
 30
0.0
 0
VERTEX
 8
WIRE
 10
  6.5000
 20
  4.5000
 30
0.0
 0
SEQEND
 8
WIRE
 0
POLYLINE
 8
WIRE
 66
1
 10
0.0
 20
0.0
 30
0.0
 0
VERTEX
 8
WIRE
 10
  6.5000
 20
  4.5000
 30
0.0
 0
VERTEX
 8
WIRE
 10
  6.0000
 20
  4.5000
 30
0.0
 0
SEQEND
 8
WIRE
 0
POLYLINE
 8
WIRE
 66
1
 10
0.0
 20
0.0
 30
0.0
 0
VERTEX
 8
WIRE
 10
  6.0000
 20
  4.4000
 30
0.0
 0
VERTEX
 8
WIRE
 10
  6.4000
 20
  4.4000
 30
0.0
 0
SEQEND
 8
WIRE
 0
POLYLINE
 8
WIRE
 66
1
 10
0.0
 20
0.0
 30
0.0
 0
VERTEX
 8
WIRE
 10
  6.4000
 20
  4.4000
 30
0.0
 0
VERTEX
 8
WIRE
 10
  6.4000
 20
  4.3000
 30
0.0
 0
SEQEND
 8
WIRE
 0
POLYLINE
 8
WIRE
 66
1
 10
0.0
 20
0.0
 30
0.0
 0
VERTEX
 8
WIRE
 10
  6.4000
 20
  4.3000
 30
0.0
 0
VERTEX
 8
WIRE
 10
  7.4000
 20
  4.3000
 30
0.0
 0
SEQEND
 8
WIRE
 0
POLYLINE
 8
WIRE
 66
1
 10
0.0
 20
0.0
 30
0.0
 0
VERTEX
 8
WIRE
 10
  7.4000
 20
  4.2000
 30
0.0
 0
VERTEX
 8
WIRE
 10
  6.3000
 20
  4.2000
 30
0.0
 0
SEQEND
 8
WIRE
 0
POLYLINE
 8
WIRE
 66
1
 10
0.0
 20
0.0
 30
0.0
 0
VERTEX
 8
WIRE
 10
  6.3000
 20
  4.2000
 30
0.0
 0
VERTEX
 8
WIRE
 10
  6.3000
 20
  4.3000
 30
0.0
 0
SEQEND
 8
WIRE
 0
POLYLINE
 8
WIRE
 66
1
 10
0.0
 20
0.0
 30
0.0
 0
VERTEX
 8
WIRE
 10
  6.3000
 20
  4.3000
 30
0.0
 0
VERTEX
 8
WIRE
 10
  6.0000
 20
  4.3000
 30
0.0
 0
SEQEND
 8
WIRE
 0
POLYLINE
 8
WIRE
 66
1
 10
0.0
 20
0.0
 30
0.0
 0
VERTEX
 8
WIRE
 10
  7.4000
 20
  4.1000
 30
0.0
 0
VERTEX
 8
WIRE
 10
  7.0000
 20
  4.1000
 30
0.0
 0
SEQEND
 8
WIRE
 0
POLYLINE
 8
WIRE
 66
1
 10
0.0
 20
0.0
 30
0.0
 0
VERTEX
 8
WIRE
 10
  7.0000
 20
  4.1000
 30
0.0
 0
VERTEX
 8
WIRE
 10
  7.0000
 20
  3.9000
 30
0.0
 0
SEQEND
 8
WIRE
 0
POLYLINE
 8
WIRE
 66
1
 10
0.0
 20
0.0
 30
0.0
 0
VERTEX
 8
WIRE
 10
  7.0000
 20
  3.9000
 30
0.0
 0
VERTEX
 8
WIRE
 10
  6.0000
 20
  3.9000
 30
0.0
 0
SEQEND
 8
WIRE
 0
POLYLINE
 8
WIRE
 66
1
 10
0.0
 20
0.0
 30
0.0
 0
VERTEX
 8
WIRE
 10
  7.4000
 20
  4.0000
 30
0.0
 0
VERTEX
 8
WIRE
 10
  7.1000
 20
  4.0000
 30
0.0
 0
SEQEND
 8
WIRE
 0
POLYLINE
 8
WIRE
 66
1
 10
0.0
 20
0.0
 30
0.0
 0
VERTEX
 8
WIRE
 10
  7.1000
 20
  4.0000
 30
0.0
 0
VERTEX
 8
WIRE
 10
  7.1000
 20
  3.8000
 30
0.0
 0
SEQEND
 8
WIRE
 0
POLYLINE
 8
WIRE
 66
1
 10
0.0
 20
0.0
 30
0.0
 0
VERTEX
 8
WIRE
 10
  7.1000
 20
  3.8000
 30
0.0
 0
VERTEX
 8
WIRE
 10
  6.0000
 20
  3.8000
 30
0.0
 0
SEQEND
 8
WIRE
 0
ENDSEC
 0
EOF
